<svg version="1.1" id="Layer_1" xmlns="http://www.w3.org/2000/svg" xmlns:xlink="http://www.w3.org/1999/xlink" x="0px" y="0px"
	 width="100%" viewBox="0 0 159 148" enable-background="new 0 0 159 148" xml:space="preserve">
<path fill="#FEFEFE" opacity="1.000000" stroke="none" 
	d="
M79.000000,149.000000 
	C52.687717,149.000000 26.875437,149.000000 1.031578,149.000000 
	C1.031578,99.727936 1.031578,50.455853 1.031578,1.091882 
	C53.895412,1.091882 106.791039,1.091882 159.843323,1.091882 
	C159.843323,50.332947 159.843323,99.666420 159.843323,149.000000 
	C133.122910,149.000000 106.311455,149.000000 79.000000,149.000000 
M113.484489,63.878189 
	C106.370537,63.878189 99.256584,63.878189 91.739136,63.878189 
	C91.739136,53.389786 91.901009,43.425880 91.681931,33.470360 
	C91.537178,26.892866 86.795364,22.240433 80.746582,22.082964 
	C74.569672,21.922161 69.532761,26.737436 69.310226,33.488007 
	C69.079857,40.475704 69.247658,47.476559 69.242851,54.471657 
	C69.240738,57.545547 69.242493,60.619438 69.242493,63.880840 
	C58.624237,63.880840 48.813637,63.814182 39.004463,63.903702 
	C32.184402,63.965939 27.348957,68.589409 27.244473,74.889946 
	C27.141199,81.117661 32.049080,85.926682 38.774956,86.104912 
	C41.770817,86.184296 44.770470,86.121422 47.768402,86.121643 
	C54.856747,86.122162 61.945095,86.121811 69.242615,86.121811 
	C69.242615,87.987854 69.242233,89.144989 69.242676,90.302132 
	C69.245972,98.962791 69.043472,107.629761 69.308517,116.282402 
	C69.595718,125.658028 78.394402,130.733963 86.198586,126.236420 
	C90.398911,123.815796 91.790764,119.912079 91.770119,115.267784 
	C91.727455,105.672745 91.757256,96.077393 91.757256,86.117897 
	C102.321518,86.117897 112.282898,86.199471 122.242165,86.089409 
	C128.958450,86.015182 133.870148,81.095596 133.755478,74.873039 
	C133.643051,68.772087 128.894470,64.117126 122.469864,63.899544 
	C119.808014,63.809391 117.140717,63.880444 113.484489,63.878189 
z"/>
<path fill="#050505" opacity="1.000000" stroke="none" 
	d="
M113.980194,63.878189 
	C117.140717,63.880444 119.808014,63.809391 122.469864,63.899544 
	C128.894470,64.117126 133.643051,68.772087 133.755478,74.873039 
	C133.870148,81.095596 128.958450,86.015182 122.242165,86.089409 
	C112.282898,86.199471 102.321518,86.117897 91.757256,86.117897 
	C91.757256,96.077393 91.727455,105.672745 91.770119,115.267784 
	C91.790764,119.912079 90.398911,123.815796 86.198586,126.236420 
	C78.394402,130.733963 69.595718,125.658028 69.308517,116.282402 
	C69.043472,107.629761 69.245972,98.962791 69.242676,90.302132 
	C69.242233,89.144989 69.242615,87.987854 69.242615,86.121811 
	C61.945095,86.121811 54.856747,86.122162 47.768402,86.121643 
	C44.770470,86.121422 41.770817,86.184296 38.774956,86.104912 
	C32.049080,85.926682 27.141199,81.117661 27.244473,74.889946 
	C27.348957,68.589409 32.184402,63.965939 39.004463,63.903702 
	C48.813637,63.814182 58.624237,63.880840 69.242493,63.880840 
	C69.242493,60.619438 69.240738,57.545547 69.242851,54.471657 
	C69.247658,47.476559 69.079857,40.475704 69.310226,33.488007 
	C69.532761,26.737436 74.569672,21.922161 80.746582,22.082964 
	C86.795364,22.240433 91.537178,26.892866 91.681931,33.470360 
	C91.901009,43.425880 91.739136,53.389786 91.739136,63.878189 
	C99.256584,63.878189 106.370537,63.878189 113.980194,63.878189 
z"/>
</svg>