<svg version="1.1" id="Layer_1" xmlns="http://www.w3.org/2000/svg" xmlns:xlink="http://www.w3.org/1999/xlink" x="0px" y="0px"
	 width="100%" viewBox="0 0 225 225" enable-background="new 0 0 225 225" xml:space="preserve">
<path fill="#FEFEFE" opacity="1.000000" stroke="none" 
	d="
M147.000000,226.000000 
	C98.000000,226.000000 49.500008,226.000000 1.000006,226.000000 
	C1.000004,151.000000 1.000004,76.000015 1.000002,1.000017 
	C75.999992,1.000011 150.999985,1.000011 225.999969,1.000005 
	C225.999985,75.999985 225.999985,150.999969 226.000000,225.999969 
	C199.833328,226.000000 173.666672,226.000000 147.000000,226.000000 
M85.874840,25.355616 
	C77.884254,32.867348 72.937874,42.022522 72.739876,53.028572 
	C72.398254,72.018570 71.913155,91.051788 72.796219,110.005936 
	C73.805588,131.671112 92.047424,148.030197 113.491035,148.035187 
	C134.972153,148.040176 153.047623,131.732071 154.152557,110.009506 
	C155.048904,92.387665 154.541733,74.690468 154.517700,57.026890 
	C154.493698,39.373566 146.735397,26.075533 130.709244,18.641909 
	C114.911682,11.314321 99.910309,13.810857 85.874840,25.355616 
M163.038620,114.302444 
	C159.682114,137.812943 138.866974,156.412888 115.377724,156.891144 
	C87.019249,157.468536 65.021294,136.882553 63.259533,108.118225 
	C62.936455,102.843285 60.551765,99.999519 56.460716,100.010574 
	C52.087093,100.022392 49.672508,103.062744 49.865242,108.665977 
	C50.478977,126.508598 57.378365,141.531387 70.433739,153.681976 
	C80.601738,163.145294 92.767143,168.424286 106.449280,170.166977 
	C106.449280,179.855377 106.449280,189.234024 106.449280,198.839767 
	C101.422890,198.839767 96.772507,198.805069 92.122856,198.848816 
	C86.689743,198.899948 83.953987,201.080902 83.846169,205.347443 
	C83.731453,209.886795 86.487953,212.245667 92.181091,212.261948 
	C106.337662,212.302444 120.494476,212.298462 134.651077,212.264175 
	C140.473999,212.250076 143.178116,210.044724 143.151093,205.520386 
	C143.124451,201.060333 140.344360,198.882858 134.543015,198.845856 
	C129.795227,198.815582 125.047081,198.839706 120.488739,198.839706 
	C120.488739,188.753784 120.488739,179.497025 120.488739,170.156494 
	C132.394516,168.638504 143.029709,164.612427 152.238571,157.312317 
	C168.163208,144.688416 176.636139,128.219376 177.154297,107.820213 
	C177.275742,103.039658 174.720856,99.973267 170.672943,100.060440 
	C166.314697,100.154289 164.052567,102.614250 163.787567,106.981468 
	C163.656616,109.139786 163.359543,111.288017 163.038620,114.302444 
z"/>
<path fill="#020202" opacity="1.000000" stroke="none" 
	d="
M86.143517,25.123182 
	C99.910309,13.810857 114.911682,11.314321 130.709244,18.641909 
	C146.735397,26.075533 154.493698,39.373566 154.517700,57.026890 
	C154.541733,74.690468 155.048904,92.387665 154.152557,110.009506 
	C153.047623,131.732071 134.972153,148.040176 113.491035,148.035187 
	C92.047424,148.030197 73.805588,131.671112 72.796219,110.005936 
	C71.913155,91.051788 72.398254,72.018570 72.739876,53.028572 
	C72.937874,42.022522 77.884254,32.867348 86.143517,25.123182 
z"/>
<path fill="#030303" opacity="1.000000" stroke="none" 
	d="
M163.088135,113.871628 
	C163.359543,111.288017 163.656616,109.139786 163.787567,106.981468 
	C164.052567,102.614250 166.314697,100.154289 170.672943,100.060440 
	C174.720856,99.973267 177.275742,103.039658 177.154297,107.820213 
	C176.636139,128.219376 168.163208,144.688416 152.238571,157.312317 
	C143.029709,164.612427 132.394516,168.638504 120.488739,170.156494 
	C120.488739,179.497025 120.488739,188.753784 120.488739,198.839706 
	C125.047081,198.839706 129.795227,198.815582 134.543015,198.845856 
	C140.344360,198.882858 143.124451,201.060333 143.151093,205.520386 
	C143.178116,210.044724 140.473999,212.250076 134.651077,212.264175 
	C120.494476,212.298462 106.337662,212.302444 92.181091,212.261948 
	C86.487953,212.245667 83.731453,209.886795 83.846169,205.347443 
	C83.953987,201.080902 86.689743,198.899948 92.122856,198.848816 
	C96.772507,198.805069 101.422890,198.839767 106.449280,198.839767 
	C106.449280,189.234024 106.449280,179.855377 106.449280,170.166977 
	C92.767143,168.424286 80.601738,163.145294 70.433739,153.681976 
	C57.378365,141.531387 50.478977,126.508598 49.865242,108.665977 
	C49.672508,103.062744 52.087093,100.022392 56.460716,100.010574 
	C60.551765,99.999519 62.936455,102.843285 63.259533,108.118225 
	C65.021294,136.882553 87.019249,157.468536 115.377724,156.891144 
	C138.866974,156.412888 159.682114,137.812943 163.088135,113.871628 
z"/>
</svg>